# xmcd
#
# Track frame offsets:
# 150
# 23176
# 44973
# 59325
# 84110
# 102775
# 123653
# 142573
# 159604
# 178959
# 196563
#
# Disc length: 2752 seconds
#
#
# Revision: 0
# Processed by: cddbd v1.5PL3 Copyright (c) Steve Scherf et al.
# Submitted via: FreeRIP 2.70 
#
DISCID=8d0abe0b
DTITLE=Black Debbath - Den femte statsmakt
DYEAR=2004
DGENRE=Heavy Metal
TTITLE0=Den femte statsmakt
TTITLE1=What the previous song was about
TTITLE2=Vi må redde Geirfuglen!
TTITLE3=Ja og nei til EF!
TTITLE4=Min kone forlot meg mens jeg sto og fiska
TTITLE5=Styrk Norskfaget!
TTITLE6=Voggesang til Trønderen
TTITLE7=Om bruken av tabuord i det norske språk
TTITLE8=Tredveårsfurua på Askøy
TTITLE9=Dødsstraff uansett forbrytelse!
TTITLE10=Ved nærmere ettertanke
EXTD=Knallhard bluesbasert rikssynsing!
EXTT0=Video finnes på www.jarlemedhus.com/
EXTT1=
EXTT2=En faunapolitisk kraftsalve
EXTT3=om Norges tilnærming til Europa
EXTT4=Just mens jeg dro en skrei
EXTT5=
EXTT6=
EXTT7=
EXTT8=Et av Vestlandets syv underverker
EXTT9=Forslag til en kriminalpolitisk ansiktsløftning
EXTT10=
PLAYORDER=
